<svg xmlns="http://www.w3.org/2000/svg" viewBox="0.934 6.475 4.350 3.539">
  <path style="fill:none;stroke:currentColor;stroke-width:0.075;stroke-linecap:butt;stroke-linejoin:miter;stroke-dasharray:none;stroke-opacity:1" d="M 3.7866331,8.9008665 C 4.01976,8.6826777 3.375448,8.6851173 3.4314735,8.999198 3.5478417,9.6515619 4.9223464,8.5834736 3.6663719,8.454129 3.5432985,8.4414545 3.431912,8.499304 3.3402955,8.53366" /><path style="fill:none;stroke:currentColor;stroke-width:0.075;stroke-linecap:butt;stroke-linejoin:miter;stroke-opacity:1;stroke-dasharray:none" d="M 3.1335154,8.6052376 C 2.9620654,8.7003198 2.3526426,8.8990338 2.1314267,8.5893308" /><path style="fill:none;stroke:currentColor;stroke-width:0.075;stroke-linecap:butt;stroke-linejoin:miter;stroke-dasharray:none;stroke-opacity:1" d="M 1.9564588,8.358692 C 1.7694915,8.2480911 2.235382,8.032889 2.235382,8.3979755 c 0,0.042281 -0.041911,0.1234832 -0.072143,0.1436379 -0.3509591,0.2339729 -0.8662649,0.061761 -0.7078245,-0.4135605 0.073718,-0.2211527 0.3893254,-0.294264 0.5964813,-0.294264 0.094735,0 0.325774,0.08186 0.2436924,0.036871 C 2.0716626,7.7479247 2.1310158,7.3574053 2.281295,7.1257987 2.4683454,6.8375216 3.5371859,6.9567854 3.3482486,7.5792898 3.313566,7.693561 3.0320284,7.8132148 2.902876,7.7701639 2.8389106,7.7488411 2.738792,7.7264959 2.7040488,7.6588206 2.4970103,7.255536 3.112599,7.3218645 2.9309944,7.5077121" /><path style="fill:none;stroke:currentColor;stroke-width:0.065;stroke-linecap:butt;stroke-linejoin:miter;stroke-dasharray:none;stroke-opacity:1" d="m 2.7700028,8.0008033 c -0.014414,0.3891836 0.7014606,-0.00393 0.9664996,-0.025706 0.1574773,-0.012937 0.3443091,0.049566 0.4838564,0.049566" /><path style="fill:none;stroke:currentColor;stroke-width:0.075;stroke-linecap:butt;stroke-linejoin:miter;stroke-opacity:1;stroke-dasharray:none" d="M 3.3641548,7.7383515 C 3.5936007,7.7939415 3.6770741,7.5492612 3.9049647,7.5872429 4.120289,7.6231302 4.3315598,7.775576 4.5491645,7.6667737" />
</svg>
